<svg xmlns="http://www.w3.org/2000/svg" width="512" height="512" x="0" y="0" viewBox="0 0 24 24"><g><g xmlns="http://www.w3.org/2000/svg" transform="translate(-93.858)"><path d="m105.858 2c-5.519 0-10 4.481-10 10s4.481 10 10 10 10-4.481 10-10-4.481-10-10-10zm0 2c4.415 0 8 3.585 8 8s-3.585 8-8 8c-4.416 0-8-3.585-8-8s3.584-8 8-8zm-1.768 9.414 4.95-4.95c.39-.39 1.024-.39 1.414 0 .39.391.39 1.024 0 1.415l-5.657 5.657c-.39.39-1.024.39-1.414 0l-2.121-2.122c-.391-.39-.391-1.024 0-1.414.39-.39 1.023-.39 1.414 0z" fill="#000000" data-original="#000000"></path></g></g></svg>